<svg xmlns="http://www.w3.org/2000/svg" width="254.425" height="139.47" viewBox="0 0 254.425 139.47">
  <g id="Безымянный-1_Монтажная_область_1" data-name="Безымянный-1_Монтажная область 1" transform="translate(-4.18 -8.35)">
    <path id="Контур_20" data-name="Контур 20" d="M12.4,104.232A5.338,5.338,0,0,1,7.08,98.913V61.231a20.489,20.489,0,0,1,2.959-9.72l17.567-26.22a11.237,11.237,0,0,1,8.259-4.4H82.05a5.319,5.319,0,0,1,5.413,5.3V98.913a5.338,5.338,0,0,1-5.319,5.319Z" transform="translate(2.531 10.945)" fill="#d6d7f0"/>
    <rect id="Прямоугольник_12" data-name="Прямоугольник 12" width="156.138" height="97.968" rx="1.42" transform="translate(96.698 13.8)" fill="#d6d7f0"/>
    <path id="Контур_21" data-name="Контур 21" d="M16.816,53.977c-2.922,0-3.97-1.873-2.322-4.382L28.24,29.461a11.237,11.237,0,0,1,8.3-4.4h31.22a5.338,5.338,0,0,1,5.319,5.319v18.3a5.319,5.319,0,0,1-5.319,5.3Z" transform="translate(8.321 14.585)" fill="#fff"/>
    <rect id="Прямоугольник_13" data-name="Прямоугольник 13" width="163.611" height="7.136" rx="1.42" transform="translate(91.941 8.35)" fill="#a6a7bf"/>
    <rect id="Прямоугольник_14" data-name="Прямоугольник 14" width="11.218" height="12.248" rx="1.42" transform="translate(8.6 98.152)" fill="#fff"/>
    <rect id="Прямоугольник_15" data-name="Прямоугольник 15" width="135.724" height="5.094" rx="0.71" transform="translate(106.905 31.142)" fill="#a6a7bf"/>
    <rect id="Прямоугольник_16" data-name="Прямоугольник 16" width="135.724" height="5.094" rx="0.71" transform="translate(106.905 52.923)" fill="#a6a7bf"/>
    <rect id="Прямоугольник_17" data-name="Прямоугольник 17" width="135.724" height="5.094" rx="0.71" transform="translate(106.905 73.337)" fill="#a6a7bf"/>
    <rect id="Прямоугольник_18" data-name="Прямоугольник 18" width="135.724" height="5.094" rx="0.71" transform="translate(106.905 95.437)" fill="#a6a7bf"/>
    <path id="Контур_22" data-name="Контур 22" d="M4.18,71.324a2.659,2.659,0,0,1,2.641-2.659h93.342a2.6,2.6,0,0,0,2.659-2.547,2.6,2.6,0,0,1,2.659-2.547H253.923a2.659,2.659,0,0,1,2.641,2.678V78.272a2.659,2.659,0,0,1-2.641,2.659H12.608A16.013,16.013,0,0,1,7.589,79.9l-.862-.356A4.308,4.308,0,0,1,4.274,75.8Z" transform="translate(0 48.198)" fill="#7a7b8c"/>
    <path id="Контур_23" data-name="Контур 23" d="M71.082,82.555a22.586,22.586,0,0,0-45.042,0" transform="translate(19.08 46.555)" fill="#7a7b8c"/>
    <circle id="Эллипс_28" data-name="Эллипс 28" cx="8.372" cy="8.372" r="8.372" transform="translate(59.279 122.368)" fill="#fff"/>
    <circle id="Эллипс_29" data-name="Эллипс 29" cx="16.762" cy="16.762" r="16.762" transform="translate(50.888 113.978)" fill="#a6a7bf"/>
    <circle id="Эллипс_30" data-name="Эллипс 30" cx="8.372" cy="8.372" r="8.372" transform="translate(59.279 122.368)" fill="#fff"/>
    <rect id="Прямоугольник_19" data-name="Прямоугольник 19" width="25.845" height="24.497" rx="1.42" transform="translate(232.759 123.323)" fill="#e8e8f7"/>
    <rect id="Прямоугольник_20" data-name="Прямоугольник 20" width="43.206" height="54.087" rx="1.42" transform="translate(186.163 93.733)" fill="#a6a7bf"/>
    <rect id="Прямоугольник_21" data-name="Прямоугольник 21" width="45.922" height="27.887" rx="1.42" transform="translate(190.246 119.933)" fill="#d6d7f0"/>
  </g>
</svg>
