<svg xmlns="http://www.w3.org/2000/svg" width="246" height="242.268" viewBox="0 0 246 242.268">
  <g id="planning-sheets-of-paper-coffee-by-oblik-studio" transform="translate(0.029 0.044)">
    <path id="Контур_1" data-name="Контур 1" d="M765.082,713.948l-103.245-9.3a5.177,5.177,0,0,1-4.688-5.621l12.356-137.187a5.177,5.177,0,0,1,5.621-4.688L778.37,566.44a5.177,5.177,0,0,1,4.688,5.621L770.7,709.248A5.179,5.179,0,0,1,765.082,713.948Z" transform="translate(-577.552 -489.679)" fill="#cccdeb"/>
    <path id="Контур_2" data-name="Контур 2" d="M287.658,729.526l-99.72,28.334a5.173,5.173,0,0,1-6.384-3.573l-37.673-132.5a5.173,5.173,0,0,1,3.574-6.384l99.72-28.322a5.173,5.173,0,0,1,6.384,3.573l37.673,132.5A5.207,5.207,0,0,1,287.658,729.526Z" transform="translate(-126.306 -515.832)" fill="#d6d7f0"/>
    <g id="Сгруппировать_14" data-name="Сгруппировать 14" transform="translate(179.964 96.898)">
      <ellipse id="Эллипс_23" data-name="Эллипс 23" cx="22.798" cy="23.052" rx="22.798" ry="23.052" transform="translate(0 16.528) rotate(-21.253)" fill="#ff5856"/>
      <path id="Контур_3" data-name="Контур 3" d="M1787.756,914.172l-23.585,9.194a4.762,4.762,0,0,1-6.13-2.7l-.024-.048a4.762,4.762,0,0,1,2.7-6.13l23.585-9.17a4.762,4.762,0,0,1,6.13,2.7l.024.048A4.73,4.73,0,0,1,1787.756,914.172Z" transform="translate(-1724.77 -892.31)" fill="#ff5856"/>
      <ellipse id="Эллипс_24" data-name="Эллипс 24" cx="17.02" cy="17.226" rx="17.02" ry="17.226" transform="translate(7.497 19.864) rotate(-21.253)" fill="#d4bfa9"/>
      <path id="Контур_4" data-name="Контур 4" d="M1643.905,962.784a2.934,2.934,0,0,1-1.03-2.907,2.3,2.3,0,0,1,2.447-1.49c2.168-.048,4.894.485,6.263-1.72,1.236-1.962.182-4.2-.751-6.033a4.506,4.506,0,0,1-.8-3.089c.279-1.127,1.575-1.345,2.58-1.26,1.308.133,1.284-1.926-.024-2.059-2.629-.254-4.894,1.538-4.664,4.252a11.461,11.461,0,0,0,1.575,4.046c.46.933,1.005,2.447.1,3.295-.957.9-2.7.509-3.888.485a5.043,5.043,0,0,0-3.792,1.211c-1.938,1.938-1.308,4.991.545,6.723.981.921,2.4-.545,1.441-1.454Z" transform="translate(-1621.973 -926.761)" fill="#ebdbcd"/>
      <path id="Контур_5" data-name="Контур 5" d="M1706.91,1002.664c-1.441-1.962,1.926-3.246,3.222-3.731,1.756-.642,4.276-1.127,5.354-2.835.957-1.551.46-3.477-.182-5.027-.751-1.878-1.187-3.683.388-5.257.933-.921-.545-2.35-1.49-1.417a5.729,5.729,0,0,0-1.514,5.512c.412,1.6,2.423,4.482.363,5.718a21.044,21.044,0,0,1-3.343,1.308,13.2,13.2,0,0,0-3.2,1.466c-1.672,1.163-2.725,3.549-1.393,5.354.812,1.018,2.568-.012,1.793-1.09Z" transform="translate(-1678.024 -961.82)" fill="#ebdbcd"/>
    </g>
    <g id="Сгруппировать_16" data-name="Сгруппировать 16" transform="translate(51.905 48.791)">
      <path id="Контур_6" data-name="Контур 6" d="M555.737,549.894,453,563.776a5.157,5.157,0,0,1-5.815-4.434l-18.437-136.5a5.157,5.157,0,0,1,4.434-5.815l102.712-13.882a5.157,5.157,0,0,1,5.815,4.434l18.437,136.5A5.126,5.126,0,0,1,555.737,549.894Z" transform="translate(-428.701 -403.101)" fill="#e8e8f7"/>
      <g id="Сгруппировать_15" data-name="Сгруппировать 15" transform="translate(21.768 26.967)">
        <circle id="Эллипс_25" data-name="Эллипс 25" cx="10.43" cy="10.43" r="10.43" transform="translate(0 12.402)" fill="#fff"/>
        <circle id="Эллипс_26" data-name="Эллипс 26" cx="10.43" cy="10.43" r="10.43" transform="translate(4.652 46.866)" fill="#fff"/>
        <circle id="Эллипс_27" data-name="Эллипс 27" cx="10.43" cy="10.43" r="10.43" transform="translate(9.315 81.329)" fill="#fff"/>
        <path id="Контур_7" data-name="Контур 7" d="M904.327,687.079,862.014,692.8a2.66,2.66,0,0,1-2.968-2.265h0a2.66,2.66,0,0,1,2.265-2.968l42.313-5.718a2.66,2.66,0,0,1,2.968,2.265h0A2.629,2.629,0,0,1,904.327,687.079Z" transform="translate(-828.665 -675.028)" fill="#d6d7f0"/>
        <path id="Контур_8" data-name="Контур 8" d="M899.669,778.279l-27.655,3.731a2.66,2.66,0,0,1-2.968-2.265h0a2.66,2.66,0,0,1,2.265-2.968l27.655-3.731a2.66,2.66,0,0,1,2.968,2.265h0A2.643,2.643,0,0,1,899.669,778.279Z" transform="translate(-837.454 -755.181)" fill="#d6d7f0"/>
        <path id="Контур_9" data-name="Контур 9" d="M981.427,1256.379l-42.313,5.718a2.66,2.66,0,0,1-2.968-2.265h0a2.66,2.66,0,0,1,2.265-2.968l42.313-5.718a2.66,2.66,0,0,1,2.968,2.265h0A2.667,2.667,0,0,1,981.427,1256.379Z" transform="translate(-896.426 -1175.365)" fill="#d6d7f0"/>
        <path id="Контур_10" data-name="Контур 10" d="M976.669,1347.379l-27.655,3.731a2.66,2.66,0,0,1-2.968-2.265h0a2.66,2.66,0,0,1,2.265-2.968l27.655-3.731a2.66,2.66,0,0,1,2.968,2.265h0A2.653,2.653,0,0,1,976.669,1347.379Z" transform="translate(-905.126 -1255.342)" fill="#d6d7f0"/>
        <path id="Контур_11" data-name="Контур 11" d="M942.827,971.679,900.514,977.4a2.66,2.66,0,0,1-2.968-2.265h0a2.66,2.66,0,0,1,2.265-2.968l42.313-5.718a2.66,2.66,0,0,1,2.968,2.265h0A2.631,2.631,0,0,1,942.827,971.679Z" transform="translate(-862.501 -925.153)" fill="#d6d7f0"/>
        <path id="Контур_12" data-name="Контур 12" d="M938.169,1062.879l-27.656,3.731a2.66,2.66,0,0,1-2.968-2.265h0a2.66,2.66,0,0,1,2.265-2.968l27.655-3.731a2.66,2.66,0,0,1,2.968,2.265h0A2.667,2.667,0,0,1,938.169,1062.879Z" transform="translate(-871.29 -1005.305)" fill="#d6d7f0"/>
        <path id="Контур_13" data-name="Контур 13" d="M627.117,626.842a145.845,145.845,0,0,0-6.057,14.6,7.386,7.386,0,0,0-5.415-3.271,3.405,3.405,0,0,0-3.2,1.332c-.109.182-.23.388-.339.569-.715,1.211-.921,3.162.545,4a11.029,11.029,0,0,1,3.089,2.035,20.75,20.75,0,0,1,2.992,5.027,3.347,3.347,0,0,0,6.335-.848,213.209,213.209,0,0,1,5.536-22A1.889,1.889,0,0,0,627.117,626.842Z" transform="translate(-611.176 -625.717)" fill="#4e53ba"/>
      </g>
    </g>
    <g id="Сгруппировать_17" data-name="Сгруппировать 17" transform="translate(95.89 -0.044)">
      <path id="Контур_14" data-name="Контур 14" d="M903.194,3.8,899.742.688A2.881,2.881,0,0,0,895.7.894L845.4,56.725l7.7,6.929,50.32-55.82A2.846,2.846,0,0,0,903.194,3.8Z" transform="translate(-838.907 0.044)" fill="#2b31ba"/>
      <path id="Контур_15" data-name="Контур 15" d="M805.961,475.353l-7.716-6.953L791.8,481.689l1.6,1.442Z" transform="translate(-791.8 -411.654)" fill="#ebdbcd"/>
      <path id="Контур_16" data-name="Контур 16" d="M795.943,533.6l.7,1.647,1.127.5.836,1.466-5.209,3.222-1.6-1.442,2.6-5.342Z" transform="translate(-791.8 -468.956)" fill="#2b31ba"/>
    </g>
    <g id="Сгруппировать_18" data-name="Сгруппировать 18" transform="translate(-0.029 157.257)">
      <path id="Контур_17" data-name="Контур 17" d="M747.956,1530.7a.6.6,0,0,1,.206.024.5.5,0,0,1,.315.642,14.175,14.175,0,0,1-1.332,2.81.518.518,0,0,1-.872-.557,13.816,13.816,0,0,0,1.236-2.6A.527.527,0,0,1,747.956,1530.7Z" transform="translate(-655.792 -1502.572)" fill="#110580"/>
      <path id="Контур_18" data-name="Контур 18" d="M71.04,1326.4a.472.472,0,0,1,.182.024l.727.206c1.672.509,3.4,1.005,5.233,1.6a.506.506,0,0,1-.327.957c-1.8-.594-3.525-1.1-5.2-1.575l-.727-.206a.491.491,0,0,1-.339-.642A.521.521,0,0,1,71.04,1326.4Zm11.75,3.961a.4.4,0,0,1,.23.048,44.833,44.833,0,0,1,5.609,2.81.521.521,0,0,1-.533.9,46.327,46.327,0,0,0-5.487-2.75.517.517,0,0,1-.279-.666A.629.629,0,0,1,82.79,1330.361Zm10.6,6.36a.522.522,0,0,1,.363.109,28.027,28.027,0,0,1,4.3,4.6.51.51,0,1,1-.812.618,28.765,28.765,0,0,0-4.167-4.434.513.513,0,0,1-.048-.715A.5.5,0,0,1,93.39,1336.721Zm7.4,9.824a.508.508,0,0,1,.509.3,28.187,28.187,0,0,1,2.011,5.972.516.516,0,0,1-1.005.23,28.838,28.838,0,0,0-1.938-5.766.548.548,0,0,1,.254-.691A.231.231,0,0,1,100.791,1346.545Zm-2.859,6.8a23.429,23.429,0,0,1,3.452-.024.516.516,0,0,1-.061,1.03,21.66,21.66,0,0,0-3.319.024h0a21.758,21.758,0,0,0-2.726.388.494.494,0,0,1-.594-.388.478.478,0,0,1,.388-.594,16.932,16.932,0,0,1,2.859-.436Zm9.473,1.054a.539.539,0,0,1,.182.024c1.756.485,3.586,1.078,5.924,1.962a.518.518,0,0,1-.363.969,59.066,59.066,0,0,0-5.827-1.938.5.5,0,0,1-.363-.618A.511.511,0,0,1,107.405,1354.395Zm-18,1.623a.478.478,0,0,1,.46.23.508.508,0,0,1-.157.715A12.692,12.692,0,0,0,87.284,1359a10.076,10.076,0,0,0-1.575,2.265.515.515,0,1,1-.921-.46,11.454,11.454,0,0,1,1.732-2.5,14.271,14.271,0,0,1,2.6-2.193C89.247,1356.066,89.332,1356.042,89.4,1356.018Zm13.931,2.544h.073a.508.508,0,0,1,.485.521,17.972,17.972,0,0,1-1.308,6.2.511.511,0,0,1-.945-.388,17.626,17.626,0,0,0,1.236-5.875A.458.458,0,0,1,103.335,1358.562Zm15.736.061a.747.747,0,0,1,.23.024c.69.255,1.345.521,2.035.751,1.332.484,2.556.9,3.779,1.26a.5.5,0,0,1,.339.642.491.491,0,0,1-.642.339c-1.236-.363-2.5-.775-3.84-1.284-.69-.254-1.369-.509-2.059-.775a.537.537,0,0,1-.3-.666A.579.579,0,0,1,119.071,1358.622Zm29.642-.242a.564.564,0,0,1,.46.206.529.529,0,0,1-.109.715,21.2,21.2,0,0,1-5.621,2.932.506.506,0,1,1-.327-.957,18.915,18.915,0,0,0,5.33-2.786C148.507,1358.392,148.592,1358.38,148.713,1358.38Zm-17.746,3.658h.109a29.192,29.192,0,0,0,6.081.315.5.5,0,0,1,.036,1.006h0a30.332,30.332,0,0,1-6.287-.339.51.51,0,0,1-.436-.569A.57.57,0,0,1,130.966,1362.038ZM84.1,1366.521a.51.51,0,0,1,.545.46,6.542,6.542,0,0,0,2.084,4.192c.254.206.509.412.775.594a.518.518,0,0,1-.557.872,7.046,7.046,0,0,1-.9-.691,7.642,7.642,0,0,1-2.423-4.821.522.522,0,0,1,.436-.569C84.074,1366.521,84.1,1366.521,84.1,1366.521Zm14.5,3.174a.484.484,0,0,1,.412.158.514.514,0,0,1-.048.715,12.553,12.553,0,0,1-5.669,2.956.516.516,0,0,1-.23-1.005,11.458,11.458,0,0,0,5.209-2.726A2.391,2.391,0,0,1,98.6,1369.694Z" transform="translate(-62.012 -1323.021)" fill="#110580"/>
      <path id="Контур_19" data-name="Контур 19" d="M.447,1298.5a.5.5,0,0,1,.339.109,10.721,10.721,0,0,0,2.52,1.369.511.511,0,0,1-.388.945,11.584,11.584,0,0,1-2.75-1.514.52.52,0,0,1-.1-.715A.449.449,0,0,1,.447,1298.5Z" transform="translate(0.029 -1298.5)" fill="#110580"/>
    </g>
  </g>
</svg>
