<svg xmlns="http://www.w3.org/2000/svg" width="10.4" height="13" viewBox="0 0 10.4 13">
  <path id="OOjs_UI_icon_lock" d="M11.145,5.2h-.7V3.25A3.183,3.183,0,0,0,7.2,0,3.183,3.183,0,0,0,3.95,3.25V5.2h-.7A1.254,1.254,0,0,0,2,6.454v5.3A1.255,1.255,0,0,0,3.255,13h7.891A1.255,1.255,0,0,0,12.4,11.745V6.455A1.255,1.255,0,0,0,11.145,5.2ZM7.2,10.4A1.3,1.3,0,1,1,8.5,9.1,1.3,1.3,0,0,1,7.2,10.4ZM9.15,5.2H5.25V3.575C5.25,2.6,5.25,1.3,7.2,1.3S9.15,2.6,9.15,3.575Z" transform="translate(-2)" fill="#07b700"/>
</svg>
